<?xml version="1.0" encoding="UTF-8"?>
<mxfile host="app.diagrams.net" modified="2023-12-21T08:41:41.665Z" agent="Mozilla/5.0 (Windows NT 10.0; Win64; x64) AppleWebKit/537.36 (KHTML, like Gecko) Chrome/120.0.0.0 Safari/537.36 Edg/120.0.0.0" etag="azRW23xAOnLDiwP_ClnB" version="22.1.11" type="google" pages="2">
  <diagram name="第 1 页" id="SdBCGy6qiX4zF8PBchx3">
    <mxGraphModel dx="390" dy="801" grid="1" gridSize="10" guides="1" tooltips="1" connect="1" arrows="1" fold="1" page="1" pageScale="1" pageWidth="827" pageHeight="1169" math="0" shadow="0">
      <root>
        <mxCell id="0" />
        <mxCell id="1" parent="0" />
        <mxCell id="U6kOpqA4BYuFInqFqMkD-1" value="管理員" style="shape=umlActor;verticalLabelPosition=bottom;verticalAlign=top;html=1;outlineConnect=0;fillColor=#d5e8d4;strokeColor=#82b366;" parent="1" vertex="1">
          <mxGeometry x="100" y="90" width="30" height="60" as="geometry" />
        </mxCell>
        <mxCell id="U6kOpqA4BYuFInqFqMkD-3" value="" style="html=1;points=[[0,0,0,0,5],[0,1,0,0,-5],[1,0,0,0,5],[1,1,0,0,-5]];perimeter=orthogonalPerimeter;outlineConnect=0;targetShapes=umlLifeline;portConstraint=eastwest;newEdgeStyle={&quot;curved&quot;:0,&quot;rounded&quot;:0};fillColor=#d5e8d4;strokeColor=#82b366;" parent="1" vertex="1">
          <mxGeometry x="110" y="180" width="10" height="290" as="geometry" />
        </mxCell>
        <mxCell id="U6kOpqA4BYuFInqFqMkD-9" value="&lt;font style=&quot;font-size: 15px;&quot;&gt;:sucurityGuard&lt;/font&gt;" style="rounded=0;whiteSpace=wrap;html=1;fillColor=#d5e8d4;strokeColor=#82b366;fontSize=20;fontStyle=1" parent="1" vertex="1">
          <mxGeometry x="235" y="90" width="120" height="60" as="geometry" />
        </mxCell>
        <mxCell id="U6kOpqA4BYuFInqFqMkD-51" value="" style="endArrow=classic;html=1;rounded=0;entryX=-0.08;entryY=0.155;entryDx=0;entryDy=0;entryPerimeter=0;" parent="1" source="U6kOpqA4BYuFInqFqMkD-3" target="U6kOpqA4BYuFInqFqMkD-34" edge="1">
          <mxGeometry width="50" height="50" relative="1" as="geometry">
            <mxPoint x="390" y="320" as="sourcePoint" />
            <mxPoint x="290" y="270" as="targetPoint" />
          </mxGeometry>
        </mxCell>
        <mxCell id="U6kOpqA4BYuFInqFqMkD-52" value="findcarar()" style="text;strokeColor=none;fillColor=none;html=1;fontSize=24;fontStyle=1;verticalAlign=middle;align=center;" parent="1" vertex="1">
          <mxGeometry x="160" y="180" width="100" height="40" as="geometry" />
        </mxCell>
        <mxCell id="U6kOpqA4BYuFInqFqMkD-34" value="" style="rounded=0;whiteSpace=wrap;html=1;fillColor=#d5e8d4;strokeColor=#82b366;" parent="1" vertex="1">
          <mxGeometry x="290" y="210" width="30" height="70" as="geometry" />
        </mxCell>
        <mxCell id="wemDjiCjZ48iCX2srbBQ-4" value="" style="rounded=0;whiteSpace=wrap;html=1;fillColor=#d5e8d4;strokeColor=#82b366;" vertex="1" parent="1">
          <mxGeometry x="290" y="360" width="30" height="70" as="geometry" />
        </mxCell>
        <mxCell id="wemDjiCjZ48iCX2srbBQ-5" value="" style="endArrow=classic;html=1;rounded=0;entryX=-0.1;entryY=0.163;entryDx=0;entryDy=0;entryPerimeter=0;" edge="1" parent="1" source="U6kOpqA4BYuFInqFqMkD-3" target="wemDjiCjZ48iCX2srbBQ-4">
          <mxGeometry width="50" height="50" relative="1" as="geometry">
            <mxPoint x="150" y="400" as="sourcePoint" />
            <mxPoint x="260" y="270" as="targetPoint" />
          </mxGeometry>
        </mxCell>
        <mxCell id="wemDjiCjZ48iCX2srbBQ-6" value="deleteCar()" style="text;strokeColor=none;fillColor=none;html=1;fontSize=24;fontStyle=1;verticalAlign=middle;align=center;" vertex="1" parent="1">
          <mxGeometry x="160" y="330" width="100" height="40" as="geometry" />
        </mxCell>
        <mxCell id="wemDjiCjZ48iCX2srbBQ-7" value="&lt;font style=&quot;font-size: 15px;&quot;&gt;:sucurityProfile&lt;/font&gt;" style="rounded=0;whiteSpace=wrap;html=1;fillColor=#d5e8d4;strokeColor=#82b366;fontSize=20;fontStyle=1" vertex="1" parent="1">
          <mxGeometry x="480" y="90" width="120" height="60" as="geometry" />
        </mxCell>
        <mxCell id="wemDjiCjZ48iCX2srbBQ-8" value="" style="rounded=0;whiteSpace=wrap;html=1;fillColor=#d5e8d4;strokeColor=#82b366;" vertex="1" parent="1">
          <mxGeometry x="525" y="260" width="30" height="50" as="geometry" />
        </mxCell>
        <mxCell id="wemDjiCjZ48iCX2srbBQ-9" value="" style="endArrow=none;dashed=1;html=1;dashPattern=1 3;strokeWidth=2;rounded=0;" edge="1" parent="1">
          <mxGeometry width="50" height="50" relative="1" as="geometry">
            <mxPoint x="308.57" y="520" as="sourcePoint" />
            <mxPoint x="308.57" y="150" as="targetPoint" />
          </mxGeometry>
        </mxCell>
        <mxCell id="wemDjiCjZ48iCX2srbBQ-10" value="" style="endArrow=none;dashed=1;html=1;dashPattern=1 3;strokeWidth=2;rounded=0;" edge="1" parent="1">
          <mxGeometry width="50" height="50" relative="1" as="geometry">
            <mxPoint x="539.29" y="520" as="sourcePoint" />
            <mxPoint x="539.29" y="150" as="targetPoint" />
            <Array as="points">
              <mxPoint x="539.29" y="330" />
            </Array>
          </mxGeometry>
        </mxCell>
        <mxCell id="wemDjiCjZ48iCX2srbBQ-11" value="" style="endArrow=classic;html=1;rounded=0;exitX=1;exitY=0.75;exitDx=0;exitDy=0;entryX=0;entryY=0;entryDx=0;entryDy=0;" edge="1" parent="1" source="U6kOpqA4BYuFInqFqMkD-34" target="wemDjiCjZ48iCX2srbBQ-8">
          <mxGeometry width="50" height="50" relative="1" as="geometry">
            <mxPoint x="390" y="320" as="sourcePoint" />
            <mxPoint x="440" y="270" as="targetPoint" />
          </mxGeometry>
        </mxCell>
        <mxCell id="wemDjiCjZ48iCX2srbBQ-12" value="dispaly()" style="text;strokeColor=none;fillColor=none;html=1;fontSize=24;fontStyle=1;verticalAlign=middle;align=center;" vertex="1" parent="1">
          <mxGeometry x="370" y="220" width="100" height="40" as="geometry" />
        </mxCell>
        <mxCell id="wemDjiCjZ48iCX2srbBQ-13" value="" style="endArrow=none;html=1;rounded=0;" edge="1" parent="1">
          <mxGeometry width="50" height="50" relative="1" as="geometry">
            <mxPoint x="470" y="440" as="sourcePoint" />
            <mxPoint x="600" y="370" as="targetPoint" />
          </mxGeometry>
        </mxCell>
        <mxCell id="wemDjiCjZ48iCX2srbBQ-14" value="" style="endArrow=none;html=1;rounded=0;" edge="1" parent="1">
          <mxGeometry width="50" height="50" relative="1" as="geometry">
            <mxPoint x="580" y="450" as="sourcePoint" />
            <mxPoint x="500" y="370" as="targetPoint" />
          </mxGeometry>
        </mxCell>
        <mxCell id="wemDjiCjZ48iCX2srbBQ-15" value="" style="endArrow=classic;html=1;rounded=0;exitX=1;exitY=0.5;exitDx=0;exitDy=0;" edge="1" parent="1" source="wemDjiCjZ48iCX2srbBQ-4">
          <mxGeometry width="50" height="50" relative="1" as="geometry">
            <mxPoint x="390" y="320" as="sourcePoint" />
            <mxPoint x="530" y="400" as="targetPoint" />
          </mxGeometry>
        </mxCell>
      </root>
    </mxGraphModel>
  </diagram>
  <diagram id="km2zvPQzvDtK-hDvkoVc" name="第 2 页">
    <mxGraphModel dx="273" dy="561" grid="1" gridSize="10" guides="1" tooltips="1" connect="1" arrows="1" fold="1" page="1" pageScale="1" pageWidth="827" pageHeight="1169" math="0" shadow="0">
      <root>
        <mxCell id="0" />
        <mxCell id="1" parent="0" />
      </root>
    </mxGraphModel>
  </diagram>
</mxfile>
